<?xml version="1.0" encoding="utf-8"?>
<!-- Generator: Adobe Illustrator 19.0.0, SVG Export Plug-In . SVG Version: 6.00 Build 0)  -->
<svg version="1.1" id="Layer_1" xmlns="http://www.w3.org/2000/svg" xmlns:xlink="http://www.w3.org/1999/xlink" x="0px" y="0px"
	 viewBox="0 0 1600 1200" style="enable-background:new 0 0 1600 1200;" xml:space="preserve">
<style type="text/css">
	.st0{clip-path:url(#XMLID_19_);fill:#0C7AAA;}
	.st1{clip-path:url(#XMLID_19_);fill:#006CED;}
	.st2{clip-path:url(#XMLID_19_);fill:#FFCE20;}
	.st3{clip-path:url(#XMLID_19_);fill:#CC4900;}
</style>
<g id="XMLID_17_">
	<defs>
		<rect id="XMLID_16_" width="1600" height="1200"/>
	</defs>
	<clipPath id="XMLID_19_">
		<use xlink:href="#XMLID_16_"  style="overflow:visible;"/>
	</clipPath>
	<rect id="XMLID_1_" class="st0" width="1600" height="1200"/>
	<polygon id="XMLID_3_" class="st1" points="1122.5,513.6 1488.4,285.9 1733.1,356.1 1814,648.2 1565,811.5 	"/>
	<polygon id="XMLID_2_" class="st1" points="818.7,265.6 1071.2,111.8 1194.3,373.2 841.8,413 	"/>
	<polygon id="XMLID_4_" class="st2" points="334.5,822.3 409,620 702.6,721.2 832.4,775.3 755.8,943.4 532.4,943.4 	"/>
	<polygon id="XMLID_5_" class="st2" points="947.3,647.6 1121.7,375.3 1347.3,564.7 957.9,677.4 	"/>
	<polygon id="XMLID_7_" class="st2" points="1238.8,752.3 1438.8,569.3 1638.8,796.9 	"/>
	<polygon id="XMLID_8_" class="st2" points="800,160.5 931.9,-56.6 1097.9,220 	"/>
	<polygon id="XMLID_9_" class="st2" points="49.4,981.7 204.7,734.9 379.2,807.2 	"/>
	<polygon id="XMLID_6_" class="st2" points="1168.1,943.4 925.6,1017 914.9,1220 1259.8,1251.9 	"/>
	<polygon id="XMLID_10_" class="st2" points="250.5,357.9 565.2,145.1 709.9,296.4 637.6,426.7 	"/>
	<polygon id="XMLID_12_" class="st3" points="1163.1,253.5 1387.2,-47.7 1265.2,338 	"/>
	<polygon id="XMLID_13_" class="st2" points="1138.4,320.3 1589.5,126.7 1589.5,426.7 	"/>
	<polygon id="XMLID_14_" class="st1" points="26,337.7 267.7,187 474.9,296.1 	"/>
	<polygon id="XMLID_15_" class="st1" points="100.5,572 469.5,369.6 511.6,683.1 	"/>
	<polygon id="XMLID_11_" class="st3" points="947.3,872.3 1121.7,600 1347.3,789.4 957.9,902.1 	"/>
</g>
</svg>
